<svg id="图层_1" data-name="图层 1" xmlns="http://www.w3.org/2000/svg" viewBox="0 0 313.85 297.01"><defs><style>.cls-1{fill:#fd507e;}</style></defs><title>continue</title><path class="cls-1" d="M443.41,303.72c-.19-11.66-3.72-27.55-5.5-31.47s-3.38-7.15-11.36-12.33-16.54-4.35-24.7-10.22a24,24,0,0,1-9.47-17.28c-1-10,4.05-17,3.58-26.48s-2.45-12.51-4.94-16-17.41-15.54-27.61-21.2-25.72-10.55-30-11-7.88-.65-16.36,3.67-11.55,11.08-21.2,16.28a33.06,33.06,0,0,1-4.35,1.8,20.82,20.82,0,0,1-15.35-2.23c-9.14-4.16-12.68-12-21.14-16.35s-12.06-4.13-16.35-3.73S216.5,164.5,206.5,170.5s-22,17-24.5,20.5-4.5,6.5-5,16,4.5,16.5,3.5,26.5a19.44,19.44,0,0,1-.65,5,20.51,20.51,0,0,1-9.57,11.83c-8.18,5.83-16.74,5-24.74,10.13s-9.6,8.39-11.39,12.3-4.76,22.84-4.56,34.5,3.72,27.55,5.5,31.47,3.38,7.15,11.36,12.33,16.54,4.35,24.7,10.22a39.93,39.93,0,0,1,4.35,3.26,20.38,20.38,0,0,1,5.12,14c1,10-4.05,17-3.58,26.48s2.45,12.51,4.94,16,17.41,15.54,27.61,21.2,25.72,10.55,30,11,7.88.65,16.36-3.67,12-12.15,21.2-16.28a25,25,0,0,1,4.28-1.73,20.77,20.77,0,0,1,15.42,2.16c9.14,4.16,12.68,12,21.14,16.35s12.06,4.13,16.35,3.73,22.16-7.31,32.16-13.31,22-17,24.5-20.5,4.5-6.5,5-16-4.5-16.5-3.5-26.5a22.56,22.56,0,0,1,1.06-5,18.87,18.87,0,0,1,9.16-11.85c8.18-5.83,16.74-5,24.74-10.13s9.6-8.39,11.39-12.3S443.61,315.38,443.41,303.72ZM287,389a84,84,0,1,1,84-84A84,84,0,0,1,287,389Z" transform="translate(-129.58 -157)"/><path class="cls-1" d="M252.25,253.05V357a1.76,1.76,0,0,0,2.64,1.53l90-52a1.76,1.76,0,0,0,0-3l-90-52A1.76,1.76,0,0,0,252.25,253.05Z" transform="translate(-129.58 -157)"/></svg>