<svg id="图层_1" data-name="图层 1" xmlns="http://www.w3.org/2000/svg" viewBox="0 0 431.7 462.06"><defs><style>.cls-1{fill:#ffcfcd;}.cls-2{fill:none;stroke:#fd507e;stroke-miterlimit:10;stroke-width:22px;}.cls-3{font-size:193px;fill:#fd507e;font-family:JosefinSans-Medium, Josefin Sans;}.cls-4{font-family:JosefinSans-Regular, Josefin Sans;}</style></defs><title>帮我选择</title><path class="cls-1" d="M148.88,466.42a29.3,29.3,0,0,0-4.27,15.22v3.43A27.93,27.93,0,0,0,172.55,513H429a26.36,26.36,0,0,0,26.36-26.35,47.5,47.5,0,0,0-6.83-24.54L355.85,308.49H245.09Z" transform="translate(-133.61 -61.95)"/><path class="cls-2" d="M333.17,97.92V252.74a65.24,65.24,0,0,0,9.39,33.71l106,175.66a47.5,47.5,0,0,1,6.83,24.54h0A26.36,26.36,0,0,1,429,513H172.55a27.93,27.93,0,0,1-27.94-27.93v-3.43a29.3,29.3,0,0,1,4.27-15.22L258.37,286.69A65.92,65.92,0,0,0,268,252.41V97.92a4.8,4.8,0,0,0-1-2.9l-4.62-6.16a1.17,1.17,0,0,1,.94-1.86h74.49a1.16,1.16,0,0,1,.93,1.86L334.14,95A4.8,4.8,0,0,0,333.17,97.92Z" transform="translate(-133.61 -61.95)"/><text class="cls-3" transform="matrix(0.96, 0.29, -0.29, 0.96, 240.42, 157.05)">?<tspan class="cls-4" x="88.78" y="0"> </tspan></text></svg>