<svg xmlns="http://www.w3.org/2000/svg" viewBox="0 0 548 548"><defs><style>.cls-1{fill:#ffb8c2;}.cls-2{fill:#f8ced7;}.cls-3{fill:#fee488;}.cls-4{fill:#ee859a;}</style></defs><title>logo</title><g id="图层_2" data-name="图层 2"><path class="cls-1" d="M309,569.5A273.49,273.49,0,0,1,115.61,102.61,273.49,273.49,0,1,1,502.39,489.39,271.69,271.69,0,0,1,309,569.5Z" transform="translate(-35 -22)"/><path class="cls-2" d="M309,23A273.07,273.07,0,0,1,415.26,547.55,273.07,273.07,0,0,1,202.74,44.45,271.33,271.33,0,0,1,309,23m0-1C157.67,22,35,144.67,35,296S157.67,570,309,570,583,447.33,583,296,460.33,22,309,22Z" transform="translate(-35 -22)"/></g><g id="图层_1" data-name="图层 1"><path class="cls-3" d="M491.67,329l2.77-26.42a5.33,5.33,0,0,0-4.74-5.86l-21.06-2.21a5.33,5.33,0,0,1-4.76-5.08c0-.69-.06-1.38-.1-2.07a5.34,5.34,0,0,1,4.2-5.53l20.71-4.4a5.32,5.32,0,0,0,4.1-6.32l-5.52-26A5.33,5.33,0,0,0,481,241l-20.57,4.38a5.34,5.34,0,0,1-6.1-3.37c-.25-.66-.5-1.32-.76-2a5.33,5.33,0,0,1,2.3-6.56L474,223a5.34,5.34,0,0,0,2-7.28l-13.28-23a5.34,5.34,0,0,0-7.29-2l-18.12,10.47a5.33,5.33,0,0,1-6.84-1.32l-1.35-1.67a5.32,5.32,0,0,1,.15-6.94l14-15.55a5.33,5.33,0,0,0-.4-7.53l-19.74-17.77a5.32,5.32,0,0,0-7.52.39l-13.9,15.43a5.32,5.32,0,0,1-6.92.86l-1.84-1.21a5.32,5.32,0,0,1-2-6.64l8.44-19a5.33,5.33,0,0,0-2.7-7l-24.26-10.8a5.33,5.33,0,0,0-7,2.7L357,144a5.32,5.32,0,0,1-6.3,3l-2.19-.59a5.33,5.33,0,0,1-3.95-5.71l2.15-20.44a5.34,5.34,0,0,0-4.75-5.86l-26.41-2.78a5.34,5.34,0,0,0-5.86,4.75l-2.14,20.33a5.33,5.33,0,0,1-5.09,4.76l-2.3.11a5.32,5.32,0,0,1-5.52-4.21l-4.25-20a5.33,5.33,0,0,0-6.32-4.11l-26,5.52A5.34,5.34,0,0,0,254,125l4.21,19.8a5.34,5.34,0,0,1-3.37,6.1c-.74.27-1.47.55-2.2.84a5.33,5.33,0,0,1-6.56-2.29L236,132a5.33,5.33,0,0,0-7.28-2l-23,13.28a5.32,5.32,0,0,0-1.95,7.28L213.82,168a5.33,5.33,0,0,1-1.31,6.84l-1.85,1.5a5.34,5.34,0,0,1-7-.15l-15-13.49a5.34,5.34,0,0,0-7.53.39l-17.77,19.74a5.34,5.34,0,0,0,.39,7.53l14.94,13.44a5.34,5.34,0,0,1,.86,6.91c-.44.67-.88,1.34-1.31,2a5.34,5.34,0,0,1-6.66,2l-18.35-8.18a5.34,5.34,0,0,0-7,2.71l-10.8,24.26a5.33,5.33,0,0,0,2.7,7l18.32,8.15a5.34,5.34,0,0,1,3,6.29c-.22.78-.42,1.56-.63,2.34a5.33,5.33,0,0,1-5.71,4l-19.95-2.1a5.33,5.33,0,0,0-5.86,4.74l-2.77,26.42a5.33,5.33,0,0,0,4.74,5.86l20,2.1a5.33,5.33,0,0,1,4.76,5.07c0,.8.08,1.6.13,2.39a5.32,5.32,0,0,1-4.21,5.54l-19.7,4.19a5.32,5.32,0,0,0-4.1,6.32l5.52,26A5.33,5.33,0,0,0,138,352l19.75-4.2a5.33,5.33,0,0,1,6.09,3.34c.28.74.56,1.48.86,2.22a5.32,5.32,0,0,1-2.29,6.58L144.94,370a5.33,5.33,0,0,0-2,7.28l13.28,23a5.34,5.34,0,0,0,7.29,1.95l17.63-10.18a5.33,5.33,0,0,1,6.82,1.29q.72.9,1.47,1.8a5.33,5.33,0,0,1-.14,7L175.7,417.27a5.32,5.32,0,0,0,.4,7.52l19.74,17.78a5.32,5.32,0,0,0,7.52-.4l13.73-15.24a5.32,5.32,0,0,1,6.89-.88c.63.42,1.27.83,1.91,1.23a5.33,5.33,0,0,1,2,6.67l-8.34,18.74a5.33,5.33,0,0,0,2.7,7l24.26,10.8a5.33,5.33,0,0,0,7-2.7L262,449a5.32,5.32,0,0,1,6.27-3l2.15.57a5.33,5.33,0,0,1,4,5.72l-2.17,20.55a5.34,5.34,0,0,0,4.75,5.86l26.41,2.78a5.33,5.33,0,0,0,5.86-4.75L311.43,456a5.34,5.34,0,0,1,5.06-4.76l2.16-.12a5.34,5.34,0,0,1,5.56,4.2l4.34,20.42a5.33,5.33,0,0,0,6.32,4.11l26-5.52A5.33,5.33,0,0,0,365,468l-4.36-20.51a5.33,5.33,0,0,1,3.34-6.09l2-.77a5.32,5.32,0,0,1,6.58,2.28L383,461.05a5.33,5.33,0,0,0,7.28,1.95l23-13.28a5.32,5.32,0,0,0,2-7.28l-10.56-18.29a5.33,5.33,0,0,1,1.3-6.83c.54-.43,1.08-.87,1.61-1.32a5.34,5.34,0,0,1,7,.14l15.7,14.14a5.34,5.34,0,0,0,7.53-.39l17.77-19.74a5.34,5.34,0,0,0-.39-7.53l-15.74-14.17a5.33,5.33,0,0,1-.88-6.9c.38-.58.76-1.16,1.13-1.74a5.34,5.34,0,0,1,6.66-2l19.35,8.62a5.35,5.35,0,0,0,7-2.7l10.8-24.27a5.33,5.33,0,0,0-2.7-7l-19.34-8.61a5.32,5.32,0,0,1-3-6.29c.18-.66.36-1.33.53-2a5.33,5.33,0,0,1,5.72-4l21.05,2.21A5.33,5.33,0,0,0,491.67,329Z" transform="translate(-35 -22)"/></g><g id="图层_3" data-name="图层 3"><path class="cls-4" d="M377.71,82.8l-119.3-8.6A7.14,7.14,0,0,0,251,79.49l-4.58,17.24a7.15,7.15,0,0,0,5.11,8.76L357,132.91a7.16,7.16,0,0,1,5.12,8.72l-5.41,20.8a7.14,7.14,0,0,1-8.72,5.12L242.51,140.12a7.16,7.16,0,0,0-8.73,5.16l-4.43,17.36a7.14,7.14,0,0,0,4,8.28l103.19,46.9a7.15,7.15,0,0,1,4,8.32l-74.4,284.6a7.15,7.15,0,0,0,5.12,8.73l34.27,8.91a7.14,7.14,0,0,0,8.72-5.11L424.45,101.55a7.15,7.15,0,0,0-5.23-8.75L378.88,83A6.64,6.64,0,0,0,377.71,82.8Z" transform="translate(-35 -22)"/></g></svg>