<?xml version="1.0" encoding="utf-8"?>
<!-- Generator: Adobe Illustrator 22.1.0, SVG Export Plug-In . SVG Version: 6.00 Build 0)  -->
<svg version="1.1" id="图层_1" xmlns="http://www.w3.org/2000/svg" xmlns:xlink="http://www.w3.org/1999/xlink" x="0px" y="0px"
	 viewBox="0 0 424.3 453.1" style="enable-background:new 0 0 424.3 453.1;" xml:space="preserve">
<style type="text/css">
	.st0{fill:#F89191;}
	.st1{fill:#FD507E;}
	.st2{fill:#FFCFCD;}
</style>
<title>no-loop</title>
<path class="st0" d="M394.8,182.3c25.7,107.5-40.7,215.5-148.2,241.2c-9.5,2.3-19.1,3.8-28.8,4.7l17.5-58
	c78.1-19.4,125.6-98.5,106.2-176.5c-0.8-3.1-1.6-6.1-2.6-9.1c-0.7-2.2,0.5-4.5,2.7-5.2c0.4-0.1,0.8-0.2,1.3-0.2h47.9
	C392.6,179.1,394.3,180.4,394.8,182.3z"/>
<path class="st0" d="M420.1,153.9l-166.3-1.6c-2.3,0-4.1-1.9-4.1-4.2c0-0.8,0.2-1.5,0.6-2.2l23.7-37.6c1.2-1.9,0.6-4.5-1.3-5.7
	c0,0-0.1-0.1-0.1-0.1c-14.3-8.2-29.9-13.9-46.1-16.9l4.4-54.6c25.1,3.9,49.3,12.6,71.2,25.6c1.9,1.1,4.4,0.5,5.6-1.4l29.9-47.6
	c1.2-1.9,3.8-2.5,5.7-1.3c0.6,0.4,1.1,0.9,1.4,1.5l79,139.9c1.1,2,0.4,4.5-1.6,5.6C421.5,153.8,420.8,153.9,420.1,153.9z"/>
<path class="st0" d="M90.6,133c-52.9,60.5-46.8,152.5,13.8,205.4c20.6,18,45.9,29.9,72.9,34.2l-2.2,54.7
	C65.5,413.6-12.3,313.5,1.5,203.9C13.7,107,93.9,33.1,191.4,28.9l-17.7,56.8C141.4,91.6,112.1,108.3,90.6,133z"/>
<path class="st1" d="M279,243.3c-0.9,2-1.7,3.6-5.8,6.2c-4,2.6-8.3,2.2-12.5,5.1c-2.3,1.3-4,3.4-4.6,6c-0.3,0.8-0.5,1.7-0.5,2.5
	c-0.5,5,2,8.6,1.8,13.4c-0.3,4.8-1.3,6.3-2.5,8.1c-0.9,1.2-4.1,4.3-7.8,7.1l22.8-89.3c1,0.4,2,0.8,2.9,1.5c4,2.6,4.8,4.3,5.7,6.2
	c0.9,2,2.7,10,2.8,15.9C281.4,231.8,279.9,241.4,279,243.3z"/>
<path class="st1" d="M257,180.6h-44.5l1.5-23.9c1-0.9,2.2-1.8,3.6-2.5c4.3-2.2,6.1-2.1,8.2-1.9c2.2,0.2,10,2.7,15.1,5.5
	c5.1,2.8,12.7,8.9,13.9,10.7c1.3,1.8,2.3,3.3,2.5,8.1C257.5,178,257.3,179.3,257,180.6z"/>
<path class="st1" d="M186.3,299.7c-3.9,1.9-5.7,1.8-7.7,1.6c-2.2-0.2-10-2.7-15.1-5.5c-5.1-2.8-12.7-8.9-13.9-10.7
	c-1.3-1.8-2.3-3.3-2.5-8.1c-0.1-1.6,0.2-3.1,0.5-4.6h38.6L186.3,299.7z"/>
<path class="st1" d="M160.5,159.6l-25,90.8c0,0,0,0.4-0.1,1.1c-1.3-0.4-2.5-0.9-3.8-1.7c-4-2.6-4.8-4.3-5.7-6.2
	c-0.9-2-2.7-10-2.8-15.9c-0.1-5.9,1.4-15.4,2.3-17.4c0.9-2,1.7-3.6,5.8-6.2c4-2.6,8.3-2.2,12.5-5.1c2.3-1.3,4.1-3.4,4.8-6
	c0.2-0.8,0.3-1.7,0.3-2.5c0.5-5-2-8.6-1.8-13.4c0.3-4.8,1.3-6.3,2.5-8.1C150.7,167.5,155.8,162.8,160.5,159.6z"/>
<path class="st2" d="M263.5,204.6l0,0.1l-20.6,80.8l-39.7,155.7c-1.3,5.2-4.2,8.4-7.4,8.4c-0.6,0-1.2-0.1-1.8-0.3
	c-3.8-1.5-6.4-7.4-6.3-14l2.6-143.9l0.4-23.2h-41.6c-2.8,0-5.3-2.4-6.9-6.5c-1.2-3.2-0.8-9.9-0.6-12.4c0.1-0.6,0.1-1,0.1-1
	l22.7-82.1l42.6-154.5c1.7-6.2,5.8-9.3,9.6-7.4c3.8,1.9,6.2,8.5,5.7,15.3l-12.3,146.5l-1.6,19.1h47.6c2.7,0,5.3,2.4,6.8,6.3
	C264.4,195.6,264.6,200.2,263.5,204.6z"/>
</svg>
