<svg id="图层_1" data-name="图层 1" xmlns="http://www.w3.org/2000/svg" viewBox="0 0 455.42 328.44"><defs><style>.cls-1{fill:none;stroke-width:8px;}.cls-1,.cls-2{stroke:#fd507e;stroke-miterlimit:10;}.cls-2{fill:#fd507e;}</style></defs><title>overlapping</title><path class="cls-1" d="M321.41,225.17a16.39,16.39,0,0,1-3-2.76,16.2,16.2,0,0,1-5.05-11.89c-.82-8.48,3.44-14.4,3-22.46s-2.08-10.6-4.19-13.58-14.76-13.17-23.41-18-21.8-8.95-25.43-9.3-6.68-.55-13.87,3.11-9.8,9.4-18,13.81a28.06,28.06,0,0,1-3.69,1.52,17.67,17.67,0,0,1-13-1.89c-7.75-3.53-10.75-10.18-17.92-13.86s-10.23-3.5-13.86-3.16-18.79,6.19-27.27,11.28S137.14,172.43,135,175.4s-3.81,5.51-4.24,13.57,3.82,14,3,22.46a16.41,16.41,0,0,1-.55,4.26,17.39,17.39,0,0,1-8.12,10c-6.93,4.95-14.19,4.23-21,8.6s-8.14,7.11-9.66,10.42-4,19.37-3.86,29.25,3.15,23.36,4.66,26.68,2.87,6.06,9.63,10.46,14,3.69,20.94,8.66a33.24,33.24,0,0,1,3.69,2.76,17.27,17.27,0,0,1,4.34,11.89c.82,8.48-3.43,14.4-3,22.45s2.09,10.61,4.2,13.58,14.76,13.18,23.4,18,21.81,8.94,25.44,9.3,6.68.55,13.86-3.11,10.21-10.3,18-13.81a20.67,20.67,0,0,1,3.63-1.46,17.6,17.6,0,0,1,13.07,1.83c7.75,3.53,10.75,10.18,17.93,13.86s10.22,3.5,13.85,3.16S283,392,291.44,386.93c1.56-.94,3.19-2,4.8-3.18-3.4-1-6.77-1.89-10-4-6.76-4.39-8.12-7.13-9.63-10.45s-4.49-16.79-4.66-26.68,2.34-25.94,3.86-29.25,2.89-6.05,9.67-10.42,14-3.65,21-8.6a17.35,17.35,0,0,0,8.11-10,16.47,16.47,0,0,0,.55-4.26c.85-8.48-3.39-14.41-3-22.47S314.25,247,316.37,244c1.72-2.42,8.81-9.07,16-14.2C328.68,228.8,325,227.75,321.41,225.17ZM224,328.85a56.8,56.8,0,1,1,56.8-56.8A56.8,56.8,0,0,1,224,328.85Z" transform="translate(-86.58 -142.57)"/><path class="cls-1" d="M538,339.59c-.16-9.88-3.15-23.36-4.66-26.68s-2.87-6.06-9.63-10.45-14-3.69-20.94-8.66a16.51,16.51,0,0,1-3-2.77,16.2,16.2,0,0,1-5-11.88c-.82-8.48,3.44-14.4,3-22.46s-2.09-10.6-4.2-13.58-14.76-13.17-23.4-18-21.81-8.95-25.44-9.3-6.68-.55-13.87,3.11-9.79,9.39-18,13.8a28.61,28.61,0,0,1-3.69,1.53,17.64,17.64,0,0,1-13-1.89c-7.76-3.53-10.75-10.18-17.93-13.86S368,215,364.4,215.37s-18.79,6.19-27.26,11.28c-1.56.94-3.19,2-4.8,3.18a34.5,34.5,0,0,1,10,4c6.77,4.4,8.12,7.14,9.63,10.45s4.5,16.8,4.67,26.68-2.35,25.94-3.87,29.26-2.88,6-9.66,10.42-14,3.64-21,8.59a16,16,0,0,0-7.77,10,19,19,0,0,0-.9,4.24c-.84,8.47,3.39,14.41,3,22.46s-2.12,10.6-4.24,13.57c-1.73,2.41-8.81,9.06-16,14.2,3.65,1,7.33,2.08,10.92,4.66a33.24,33.24,0,0,1,3.69,2.76,17.3,17.3,0,0,1,4.35,11.89c.82,8.48-3.44,14.4-3,22.45s2.08,10.61,4.19,13.58,14.76,13.18,23.4,18,21.81,8.94,25.44,9.29,6.68.55,13.87-3.11,10.2-10.3,18-13.8a21,21,0,0,1,3.63-1.46,17.6,17.6,0,0,1,13.07,1.83c7.76,3.53,10.76,10.17,17.93,13.86s10.23,3.5,13.86,3.16,18.79-6.2,27.26-11.28,18.66-14.42,20.78-17.38,3.81-5.52,4.23-13.57-3.81-14-3-22.47a19.17,19.17,0,0,1,.9-4.24,16,16,0,0,1,7.77-10c6.93-4.95,14.19-4.22,21-8.59s8.15-7.11,9.67-10.42S538.16,349.48,538,339.59Zm-75.83,3a56.81,56.81,0,1,1-58.63-58.63A57,57,0,0,1,462.16,342.54Z" transform="translate(-86.58 -142.57)"/><path class="cls-2" d="M352.78,300.22c-1.52,3.31-2.88,6-9.66,10.42s-14,3.64-21,8.59a16,16,0,0,0-7.77,10,19,19,0,0,0-.9,4.24c-.84,8.47,3.39,14.41,3,22.46s-2.12,10.6-4.24,13.57c-1.73,2.41-8.81,9.06-16,14.2-3.4-1-6.77-1.89-10-4-6.76-4.39-8.12-7.13-9.63-10.45s-4.49-16.79-4.66-26.68,2.34-25.94,3.86-29.25,2.89-6.05,9.67-10.42,14-3.65,21-8.6a17.35,17.35,0,0,0,8.11-10,16.47,16.47,0,0,0,.55-4.26c.85-8.48-3.39-14.41-3-22.47S314.25,247,316.37,244c1.72-2.42,8.81-9.07,16-14.2a34.5,34.5,0,0,1,10,4c6.77,4.4,8.12,7.14,9.63,10.45s4.5,16.8,4.67,26.68S354.3,296.9,352.78,300.22Z" transform="translate(-86.58 -142.57)"/></svg>