<?xml version="1.0" encoding="utf-8"?>
<!-- Generator: Adobe Illustrator 22.1.0, SVG Export Plug-In . SVG Version: 6.00 Build 0)  -->
<svg version="1.1" id="图层_1" xmlns="http://www.w3.org/2000/svg" xmlns:xlink="http://www.w3.org/1999/xlink" x="0px" y="0px"
	 viewBox="0 0 455.4 328.4" style="enable-background:new 0 0 455.4 328.4;" xml:space="preserve">
<style type="text/css">
	.st0{fill:none;stroke:#FD507E;stroke-width:8;stroke-miterlimit:10;}
	.st1{fill:#FD507E;}
</style>
<title>overlapping</title>
<path class="st0" d="M234.8,82.6c-1.1-0.8-2.1-1.7-3-2.8c-3.3-3.1-5.1-7.4-5-11.9c-0.8-8.5,3.4-14.4,3-22.5s-2.1-10.6-4.2-13.6
	s-14.8-13.2-23.4-18S180.4,5,176.8,4.6s-6.7-0.6-13.9,3.1s-9.8,9.4-18,13.8c-1.2,0.6-2.4,1.1-3.7,1.5c-4.4,1.1-9.1,0.4-13-1.9
	c-7.8-3.5-10.8-10.2-17.9-13.9S100,3.8,96.4,4.1s-18.8,6.2-27.3,11.3S50.6,29.9,48.4,32.8s-3.8,5.5-4.2,13.6s3.8,14,3,22.5
	c0,1.4-0.2,2.9-0.6,4.3c-1.3,4.2-4.2,7.8-8.1,10c-6.9,4.9-14.2,4.2-21,8.6s-8.1,7.1-9.7,10.4s-4,19.4-3.9,29.3s3.2,23.4,4.7,26.7
	s2.9,6.1,9.6,10.5s14,3.7,20.9,8.7c1.3,0.8,2.5,1.8,3.7,2.8c2.9,3.3,4.5,7.5,4.3,11.9c0.8,8.5-3.4,14.4-3,22.5s2.1,10.6,4.2,13.6
	s14.8,13.2,23.4,18s21.8,8.9,25.4,9.3s6.7,0.5,13.9-3.1s10.2-10.3,18-13.8c1.2-0.6,2.4-1.1,3.6-1.5c4.4-1.1,9.1-0.5,13.1,1.8
	c7.8,3.5,10.8,10.2,17.9,13.9s10.2,3.5,13.9,3.2s18.8-6.2,27.2-11.3c1.6-0.9,3.2-2,4.8-3.2c-3.4-1-6.8-1.9-10-4
	c-6.8-4.4-8.1-7.1-9.6-10.5s-4.5-16.8-4.7-26.7s2.3-25.9,3.9-29.3s2.9-6,9.7-10.4s14-3.6,21-8.6c3.9-2.2,6.8-5.7,8.1-10
	c0.4-1.4,0.6-2.8,0.5-4.3c0.9-8.5-3.4-14.4-3-22.5s2.1-10.6,4.2-13.6c1.7-2.4,8.8-9.1,16-14.2C242.1,86.2,238.4,85.2,234.8,82.6z
	 M137.4,186.3c-31.4,0-56.8-25.4-56.8-56.8c0-31.4,25.4-56.8,56.8-56.8c31.4,0,56.8,25.4,56.8,56.8v0
	C194.2,160.8,168.8,186.3,137.4,186.3z"/>
<path class="st0" d="M451.4,197c-0.2-9.9-3.2-23.4-4.7-26.7s-2.9-6.1-9.6-10.5s-14-3.7-20.9-8.7c-1.1-0.8-2.1-1.7-3-2.8
	c-3.2-3.1-5-7.4-5-11.9c-0.8-8.5,3.4-14.4,3-22.5s-2.1-10.6-4.2-13.6c-2.1-3-14.8-13.2-23.4-18c-8.6-4.8-21.8-8.9-25.4-9.3
	s-6.7-0.6-13.9,3.1s-9.8,9.4-18,13.8c-1.2,0.6-2.4,1.1-3.7,1.5c-4.4,1.1-9.1,0.4-13-1.9c-7.8-3.5-10.8-10.2-17.9-13.9
	s-10.2-3.5-13.8-3.1c-3.6,0.4-18.8,6.2-27.3,11.3c-1.6,0.9-3.2,2-4.8,3.2c3.5,0.8,6.9,2.2,10,4c6.8,4.4,8.1,7.1,9.6,10.4
	s4.5,16.8,4.7,26.7c0.2,9.9-2.3,25.9-3.9,29.3c-1.5,3.3-2.9,6-9.7,10.4c-6.8,4.4-14,3.6-21,8.6c-3.9,2.1-6.7,5.7-7.8,10
	c-0.5,1.4-0.8,2.8-0.9,4.2c-0.8,8.5,3.4,14.4,3,22.5s-2.1,10.6-4.2,13.6c-1.7,2.4-8.8,9.1-16,14.2c3.6,1,7.3,2.1,10.9,4.7
	c1.3,0.8,2.5,1.8,3.7,2.8c2.9,3.3,4.5,7.5,4.4,11.9c0.8,8.5-3.4,14.4-3,22.5s2.1,10.6,4.2,13.6s14.8,13.2,23.4,18
	c8.6,4.8,21.8,8.9,25.4,9.3s6.7,0.5,13.9-3.1s10.2-10.3,18-13.8c1.2-0.6,2.4-1.1,3.6-1.5c4.4-1.1,9.1-0.5,13.1,1.8
	c7.8,3.5,10.8,10.2,17.9,13.9s10.2,3.5,13.9,3.2c3.6-0.3,18.8-6.2,27.3-11.3c8.5-5.1,18.7-14.4,20.8-17.4s3.8-5.5,4.2-13.6
	c0.4-8.1-3.8-14-3-22.5c0.1-1.4,0.4-2.9,0.9-4.2c1.1-4.3,3.9-7.9,7.8-10c6.9-5,14.2-4.2,21-8.6s8.2-7.1,9.7-10.4
	S451.6,206.9,451.4,197z M375.6,200c-1,31.4-27.3,56-58.6,54.9c-31.4-1-56-27.3-54.9-58.6c1-29.9,25-54,54.9-54.9
	c31.5-0.9,57.7,23.9,58.6,55.3C375.6,197.8,375.6,198.9,375.6,200L375.6,200z"/>
<path class="st1" d="M266.2,157.6c-1.5,3.3-2.9,6-9.7,10.4c-6.8,4.4-14,3.6-21,8.6c-3.9,2.1-6.7,5.7-7.8,10
	c-0.5,1.4-0.8,2.8-0.9,4.2c-0.8,8.5,3.4,14.4,3,22.5s-2.1,10.6-4.2,13.6c-1.7,2.4-8.8,9.1-16,14.2c-3.4-1-6.8-1.9-10-4
	c-6.8-4.4-8.1-7.1-9.6-10.5s-4.5-16.8-4.7-26.7s2.3-25.9,3.9-29.3s2.9-6,9.7-10.4s14-3.6,21-8.6c3.9-2.2,6.8-5.7,8.1-10
	c0.4-1.4,0.6-2.8,0.5-4.3c0.9-8.5-3.4-14.4-3-22.5s2.1-10.6,4.3-13.6c1.7-2.4,8.8-9.1,16-14.2c3.5,0.8,6.9,2.2,10,4
	c6.8,4.4,8.1,7.1,9.6,10.4s4.5,16.8,4.7,26.7C270.3,138.2,267.7,154.3,266.2,157.6z"/>
</svg>
