<?xml version="1.0" encoding="utf-8"?>
<!-- Generator: Adobe Illustrator 22.1.0, SVG Export Plug-In . SVG Version: 6.00 Build 0)  -->
<svg version="1.1" id="图层_1" xmlns="http://www.w3.org/2000/svg" xmlns:xlink="http://www.w3.org/1999/xlink" x="0px" y="0px"
	 viewBox="0 0 600 600" style="enable-background:new 0 0 600 600;" xml:space="preserve">
<style type="text/css">
	.st0{fill:#606060;}
	.st1{fill:#FD507E;}
</style>
<path class="st0" d="M375.9,295.4c-0.1-5.6-1.8-13.3-2.7-15.2c-0.9-1.9-1.6-3.5-5.5-6s-8-2.1-11.9-4.9c-0.7-0.4-1.7-1.6-1.7-1.6
	s-2.9-2.4-2.9-6.8c-0.5-4.8,2-8.2,1.7-12.8c-0.2-4.6-1.2-6-2.4-7.7c-1.2-1.7-8.4-7.5-13.3-10.2s-12.4-5.1-14.5-5.3s-3.8-0.3-7.9,1.8
	s-5.6,5.4-10.2,7.9c-0.7,0.4-2.1,0.9-2.1,0.9s-3.7,1.1-7.4-1.1c-4.4-2-6.1-5.8-10.2-7.9c-4.1-2.1-5.8-2-7.9-1.8s-10.7,3.5-15.5,6.4
	s-10.6,8.2-11.8,9.9s-2.2,3.1-2.4,7.7c-0.2,4.6,2.2,8,1.7,12.8c0,0.9-0.1,1.7-0.3,2.4c0,0-0.9,3.6-4.6,5.7c-4,2.8-8.1,2.4-11.9,4.9
	c-3.9,2.5-4.6,4.1-5.5,5.9c-0.9,1.9-2.3,11-2.2,16.7c0.1,5.6,1.8,13.3,2.7,15.2c0.9,1.9,1.6,3.5,5.5,6s8,2.1,11.9,4.9
	c0.8,0.5,2.1,1.6,2.1,1.6s2.5,2.4,2.5,6.8c0.5,4.8-2,8.2-1.7,12.8c0.2,4.6,1.2,6,2.4,7.7s8.4,7.5,13.3,10.2s12.4,5.1,14.5,5.3
	s3.8,0.3,7.9-1.8c4.1-2.1,5.8-5.9,10.2-7.9c0.8-0.5,2.1-0.8,2.1-0.8s3.7-1.1,7.5,1c4.4,2,6.1,5.8,10.2,7.9s5.8,2,7.9,1.8
	s10.7-3.5,15.5-6.4s10.6-8.2,11.8-9.9c1.2-1.7,2.2-3.1,2.4-7.7s-2.2-8-1.7-12.8c0-0.8,0.5-2.4,0.5-2.4s0.7-3.6,4.4-5.7
	c4-2.8,8.1-2.4,11.9-4.9c3.9-2.5,4.6-4.1,5.5-5.9C374.6,310.2,376,301,375.9,295.4z M300.4,328.4c-17.9,0-32.4-14.5-32.4-32.4
	s14.5-32.4,32.4-32.4s32.4,14.5,32.4,32.4C332.7,313.9,318.2,328.4,300.4,328.4z"/>
<path class="st1" d="M324.6,296.1c0,1.6-0.2,3.1-0.4,4.6l-11.3,16.2c-3.5,2.1-7.6,3.4-12,3.5h-0.6c-10.7,0-19.8-6.9-23-16.6
	c-0.8-2.4-1.3-5-1.3-7.7c0-1.7,0.2-3.4,0.5-5l10.9-15.6c3.5-2.2,7.7-3.6,12.2-3.7c0.2,0,0.5,0,0.7,0c10.7,0,19.7,6.9,23,16.4
	C324.1,290.7,324.6,293.3,324.6,296.1z"/>
<path class="st1" d="M343.2,219.6c-3.2-1.8-7.3-3.4-10.8-4.6c18.2-19.9,28.4-33.2,59.9-33.2h41V141c0-7.5,3.7-11.2,11.2-7.5
	l85.7,55.9c7.5,3.7,7.5,11.1,0,14.9L444.5,260c-7.5,3.7-11.2,0-11.2-7.5v-29.8h-41c-20.4,0-19.1,12.4-32.8,28.7
	c0.5-3.7,2.1-6.9,1.9-10.9c-0.3-5.3-1.4-7-2.8-9C357.3,229.5,348.9,222.8,343.2,219.6z"/>
<path class="st1" d="M530.2,409l-85.7,55.8c-7.5,3.7-11.2,0-11.2-7.5v-29.8h-41c-18.7,0-41-11.2-52.2-22.3L314,379.1
	c-3.2-3.2-5.5-6.8-6.9-10.4c4.2,2.4,6.2,6.2,10.5,8.5c4.7,2.4,6.8,2.3,9.2,2.1c2.4-0.2,12.4-4.1,18-7.5s12.3-9.5,13.7-11.5
	c0.5-0.7,1-1.4,1.4-2.3l13.7,13.7c3.7,3.7,14.9,7.5,18.6,7.5h41V342c0-7.5,3.7-11.2,11.2-7.5l85.7,59.6
	C537.6,397.8,537.6,405.3,530.2,409z"/>
<path class="st1" d="M90.5,196.7c0-11.1,7.5-22.3,22.4-22.3h74.5c18.7,0,41,11.2,52.2,22.3l21.1,21.1c-2,0.9-3.8,1.9-5.4,2.8
	c-5.6,3.4-12.3,9.5-13.7,11.5s-2.5,3.6-2.8,9c-0.3,5.3,2.5,9.2,2,14.9c0,1-0.1,2-0.4,2.8c0,0-0.4,1.7-1.9,3.6
	c-2.4-1.4-4.6-3.4-6.4-6L206,230.2c-3.7-3.7-14.9-7.5-18.6-7.5h-74.5C101.7,222.8,90.5,211.5,90.5,196.7z"/>
<path class="st1" d="M257,372.9c4,2.2,9.4,4.2,13.1,5.3l-0.7,1c-26.1,26.1-78.3,44.7-115.5,44.7h-41c-11.2,0-22.4-7.5-22.4-22.3
	c0-11.2,7.5-22.4,22.4-22.4h41c22.4,0,67.1-14.9,81.9-29.8l4.5-6.4c-0.7,3-1.7,5.8-1.5,9.1c0.3,5.3,1.4,7,2.8,9
	C243,363,251.3,369.7,257,372.9z"/>
</svg>
